<svg xmlns="http://www.w3.org/2000/svg" xmlns:xlink="http://www.w3.org/1999/xlink" width="120" zoomAndPan="magnify" viewBox="0 0 90 89.999999" height="120" preserveAspectRatio="xMidYMid meet" version="1.0"><defs><g/><clipPath id="af94c027ef"><path d="M 1.054688 6.050781 L 88.804688 6.050781 L 88.804688 84 L 1.054688 84 Z M 1.054688 6.050781 " clip-rule="nonzero"/></clipPath><clipPath id="eb8049599a"><path d="M 7 11.875 L 83 11.875 L 83 80 L 7 80 Z M 7 11.875 " clip-rule="nonzero"/></clipPath><clipPath id="e64454d501"><path d="M 2 8 L 48 8 L 48 36 L 2 36 Z M 2 8 " clip-rule="nonzero"/></clipPath><clipPath id="81be65262a"><path d="M -1.300781 12.476562 L 43.59375 4.320312 L 47.742188 27.167969 L 2.851562 35.324219 Z M -1.300781 12.476562 " clip-rule="nonzero"/></clipPath><clipPath id="a582a4d029"><path d="M 47.667969 27.179688 C 45.40625 14.734375 33.316406 6.1875 21.109375 8.402344 C 8.902344 10.621094 0.589844 22.878906 2.851562 35.324219 Z M 47.667969 27.179688 " clip-rule="nonzero"/></clipPath><clipPath id="2db26293ec"><path d="M 0 0 L 45.761719 0 L 45.761719 27.519531 L 0 27.519531 Z M 0 0 " clip-rule="nonzero"/></clipPath><clipPath id="eec65995a6"><path d="M -3.300781 4.476562 L 41.59375 -3.679688 L 45.742188 19.167969 L 0.851562 27.324219 Z M -3.300781 4.476562 " clip-rule="nonzero"/></clipPath><clipPath id="699ab70731"><path d="M 45.667969 19.179688 C 43.40625 6.734375 31.316406 -1.8125 19.109375 0.402344 C 6.902344 2.621094 -1.410156 14.878906 0.851562 27.324219 Z M 45.667969 19.179688 " clip-rule="nonzero"/></clipPath><clipPath id="a741686212"><rect x="0" width="46" y="0" height="28"/></clipPath><clipPath id="e37c3a1736"><path d="M 42 7 L 88 7 L 88 39 L 42 39 Z M 42 7 " clip-rule="nonzero"/></clipPath><clipPath id="9943e116d2"><path d="M 50.246094 1.566406 L 93.492188 16.109375 L 86.089844 38.121094 L 42.84375 23.578125 Z M 50.246094 1.566406 " clip-rule="nonzero"/></clipPath><clipPath id="9310cee05a"><path d="M 86.019531 38.09375 C 90.050781 26.105469 83.589844 12.78125 71.832031 8.824219 C 60.074219 4.871094 46.875 11.585938 42.84375 23.578125 Z M 86.019531 38.09375 " clip-rule="nonzero"/></clipPath><clipPath id="6521fbc555"><path d="M 0.71875 0 L 46 0 L 46 31.160156 L 0.71875 31.160156 Z M 0.71875 0 " clip-rule="nonzero"/></clipPath><clipPath id="9b9d935b64"><path d="M 8.246094 -5.433594 L 51.492188 9.109375 L 44.089844 31.121094 L 0.84375 16.578125 Z M 8.246094 -5.433594 " clip-rule="nonzero"/></clipPath><clipPath id="72b344d57d"><path d="M 44.019531 31.09375 C 48.050781 19.105469 41.589844 5.78125 29.832031 1.824219 C 18.074219 -2.128906 4.875 4.585938 0.84375 16.578125 Z M 44.019531 31.09375 " clip-rule="nonzero"/></clipPath><clipPath id="ff9a50a745"><rect x="0" width="46" y="0" height="32"/></clipPath><clipPath id="abfa3b952c"><path d="M 48 16 L 85 16 L 85 59 L 48 59 Z M 48 16 " clip-rule="nonzero"/></clipPath><clipPath id="ab6bd8f92b"><path d="M 93.410156 29.347656 L 68.035156 67.269531 L 48.738281 54.355469 L 74.109375 16.433594 Z M 93.410156 29.347656 " clip-rule="nonzero"/></clipPath><clipPath id="0b07f7c856"><path d="M 48.777344 54.289062 C 59.292969 61.324219 73.847656 58.585938 80.746094 48.277344 C 87.644531 37.964844 84.621094 23.46875 74.109375 16.433594 Z M 48.777344 54.289062 " clip-rule="nonzero"/></clipPath><clipPath id="5fa735ff30"><path d="M 0.71875 0.320312 L 37 0.320312 L 37 43 L 0.71875 43 Z M 0.71875 0.320312 " clip-rule="nonzero"/></clipPath><clipPath id="be4a7b5180"><path d="M 45.410156 13.347656 L 20.035156 51.269531 L 0.738281 38.355469 L 26.109375 0.433594 Z M 45.410156 13.347656 " clip-rule="nonzero"/></clipPath><clipPath id="c8f4ac35c2"><path d="M 0.777344 38.289062 C 11.292969 45.324219 25.847656 42.585938 32.746094 32.277344 C 39.644531 21.964844 36.621094 7.46875 26.109375 0.433594 Z M 0.777344 38.289062 " clip-rule="nonzero"/></clipPath><clipPath id="c9ac2f0a09"><rect x="0" width="37" y="0" height="43"/></clipPath><clipPath id="e104874ea3"><path d="M 4 11 L 41 11 L 41 54 L 4 54 Z M 4 11 " clip-rule="nonzero"/></clipPath><clipPath id="ee31e62005"><path d="M 21.246094 62.507812 L -4.871094 25.09375 L 14.171875 11.804688 L 40.289062 49.21875 Z M 21.246094 62.507812 " clip-rule="nonzero"/></clipPath><clipPath id="3bf91aab24"><path d="M 14.214844 11.867188 C 3.84375 19.105469 1.109375 33.660156 8.210938 43.832031 C 15.3125 54.003906 29.917969 56.457031 40.289062 49.21875 Z M 14.214844 11.867188 " clip-rule="nonzero"/></clipPath><clipPath id="7f2d10d2f4"><path d="M 0 0.761719 L 36.320312 0.761719 L 36.320312 43 L 0 43 Z M 0 0.761719 " clip-rule="nonzero"/></clipPath><clipPath id="1eeafb9c32"><path d="M 17.246094 51.507812 L -8.871094 14.09375 L 10.171875 0.804688 L 36.289062 38.21875 Z M 17.246094 51.507812 " clip-rule="nonzero"/></clipPath><clipPath id="50b76eeaf0"><path d="M 10.214844 0.867188 C -0.15625 8.105469 -2.890625 22.660156 4.210938 32.832031 C 11.3125 43.003906 25.917969 45.457031 36.289062 38.21875 Z M 10.214844 0.867188 " clip-rule="nonzero"/></clipPath><clipPath id="55c7f6be6a"><rect x="0" width="37" y="0" height="43"/></clipPath></defs><g fill="#000000" fill-opacity="1"><g transform="translate(44.459358, 82.127928)"><g><path d="M 0.296875 -0.203125 C 0.296875 -0.296875 0.316406 -0.363281 0.359375 -0.40625 C 0.398438 -0.445312 0.457031 -0.46875 0.53125 -0.46875 C 0.601562 -0.46875 0.660156 -0.445312 0.703125 -0.40625 C 0.742188 -0.363281 0.765625 -0.296875 0.765625 -0.203125 C 0.765625 -0.117188 0.742188 -0.0507812 0.703125 0 C 0.660156 0.0390625 0.601562 0.0625 0.53125 0.0625 C 0.457031 0.0625 0.398438 0.0390625 0.359375 0 C 0.316406 -0.0390625 0.296875 -0.109375 0.296875 -0.203125 Z M 0.296875 -0.203125 "/></g></g></g><g clip-path="url(#af94c027ef)"><path fill="#737373" d="M 45 83.925781 L 44.066406 83.292969 C 43.960938 83.222656 33.257812 75.910156 22.710938 65.804688 C 16.488281 59.828125 11.511719 54.0625 7.925781 48.648438 C 3.375 41.722656 1.054688 35.304688 1.054688 29.609375 C 1.054688 16.636719 11.617188 6.074219 24.589844 6.074219 C 29.40625 6.074219 34.066406 7.550781 38.039062 10.363281 C 40.921875 12.402344 43.277344 15.003906 45 17.992188 C 46.722656 14.984375 49.078125 12.382812 51.960938 10.363281 C 55.933594 7.550781 60.589844 6.074219 65.40625 6.074219 C 78.378906 6.074219 88.945312 16.636719 88.945312 29.609375 L 88.945312 29.628906 C 88.890625 35.289062 86.554688 41.652344 81.984375 48.558594 C 78.398438 53.972656 73.441406 59.738281 67.21875 65.734375 C 56.6875 75.875 46.035156 83.222656 45.929688 83.292969 Z M 24.589844 9.359375 C 13.429688 9.359375 4.339844 18.449219 4.339844 29.609375 C 4.339844 34.65625 6.46875 40.4375 10.667969 46.800781 C 14.097656 52.003906 18.914062 57.59375 24.960938 63.394531 C 33.519531 71.605469 42.203125 77.949219 45 79.917969 C 47.792969 77.933594 56.425781 71.550781 64.96875 63.324219 C 70.996094 57.507812 75.796875 51.933594 79.242188 46.730469 C 83.441406 40.367188 85.605469 34.621094 85.640625 29.609375 C 85.640625 18.449219 76.550781 9.378906 65.390625 9.378906 C 57.109375 9.378906 49.535156 14.617188 46.511719 22.421875 L 44.980469 26.394531 L 43.46875 22.421875 C 40.445312 14.617188 32.871094 9.359375 24.589844 9.359375 Z M 24.589844 9.359375 " fill-opacity="1" fill-rule="nonzero"/></g><g clip-path="url(#eb8049599a)"><path fill="#737373" d="M 82.9375 32.738281 C 82.9375 21.175781 73.566406 11.800781 62.003906 11.800781 C 54.988281 11.800781 48.796875 15.265625 44.996094 20.5625 C 41.195312 15.265625 35.003906 11.800781 27.988281 11.800781 C 16.425781 11.800781 7.054688 21.171875 7.054688 32.738281 C 7.054688 34.375 7.261719 35.960938 7.617188 37.492188 C 10.523438 55.550781 30.605469 74.601562 44.996094 79.835938 C 59.386719 74.601562 79.46875 55.550781 82.371094 37.492188 C 82.730469 35.964844 82.9375 34.375 82.9375 32.738281 Z M 82.9375 32.738281 " fill-opacity="1" fill-rule="nonzero"/></g><g clip-path="url(#e64454d501)"><g clip-path="url(#81be65262a)"><g clip-path="url(#a582a4d029)"><g transform="matrix(1, 0, 0, 1, 2, 8)"><g clip-path="url(#a741686212)"><g clip-path="url(#2db26293ec)"><g clip-path="url(#eec65995a6)"><g clip-path="url(#699ab70731)"><path fill="#737373" d="M -3.300781 4.476562 L 41.503906 -3.664062 L 45.652344 19.183594 L 0.851562 27.324219 Z M -3.300781 4.476562 " fill-opacity="1" fill-rule="nonzero"/></g></g></g></g></g></g></g></g><g clip-path="url(#e37c3a1736)"><g clip-path="url(#9943e116d2)"><g clip-path="url(#9310cee05a)"><g transform="matrix(1, 0, 0, 1, 42, 7)"><g clip-path="url(#ff9a50a745)"><g clip-path="url(#6521fbc555)"><g clip-path="url(#9b9d935b64)"><g clip-path="url(#72b344d57d)"><path fill="#737373" d="M 8.246094 -5.433594 L 51.40625 9.082031 L 44.003906 31.089844 L 0.84375 16.578125 Z M 8.246094 -5.433594 " fill-opacity="1" fill-rule="nonzero"/></g></g></g></g></g></g></g></g><g clip-path="url(#abfa3b952c)"><g clip-path="url(#ab6bd8f92b)"><g clip-path="url(#0b07f7c856)"><g transform="matrix(1, 0, 0, 1, 48, 16)"><g clip-path="url(#c9ac2f0a09)"><g clip-path="url(#5fa735ff30)"><g clip-path="url(#be4a7b5180)"><g clip-path="url(#c8f4ac35c2)"><path fill="#737373" d="M 45.410156 13.347656 L 20.085938 51.191406 L 0.785156 38.277344 L 26.109375 0.433594 Z M 45.410156 13.347656 " fill-opacity="1" fill-rule="nonzero"/></g></g></g></g></g></g></g></g><g clip-path="url(#e104874ea3)"><g clip-path="url(#ee31e62005)"><g clip-path="url(#3bf91aab24)"><g transform="matrix(1, 0, 0, 1, 4, 11)"><g clip-path="url(#55c7f6be6a)"><g clip-path="url(#7f2d10d2f4)"><g clip-path="url(#1eeafb9c32)"><g clip-path="url(#50b76eeaf0)"><path fill="#737373" d="M 17.246094 51.507812 L -8.816406 14.171875 L 10.222656 0.878906 L 36.289062 38.21875 Z M 17.246094 51.507812 " fill-opacity="1" fill-rule="nonzero"/></g></g></g></g></g></g></g></g></svg>