<svg xmlns="http://www.w3.org/2000/svg" xmlns:xlink="http://www.w3.org/1999/xlink" width="120" zoomAndPan="magnify" viewBox="0 0 90 89.999999" height="120" preserveAspectRatio="xMidYMid meet" version="1.0"><defs><g/><clipPath id="fb00376cff"><path d="M 0 3.4375 L 90 3.4375 L 90 86.6875 L 0 86.6875 Z M 0 3.4375 " clip-rule="nonzero"/></clipPath></defs><g fill="#000000" fill-opacity="1"><g transform="translate(43.883787, 46.122069)"><g><path d="M 1.65625 0 L 1.59375 -0.3125 L 1.578125 -0.3125 C 1.472656 -0.175781 1.367188 -0.0820312 1.265625 -0.03125 C 1.160156 0.0195312 1.023438 0.046875 0.859375 0.046875 C 0.648438 0.046875 0.484375 -0.0078125 0.359375 -0.125 C 0.242188 -0.238281 0.1875 -0.394531 0.1875 -0.59375 C 0.1875 -1.019531 0.53125 -1.242188 1.21875 -1.265625 L 1.578125 -1.28125 L 1.578125 -1.421875 C 1.578125 -1.585938 1.539062 -1.707031 1.46875 -1.78125 C 1.40625 -1.863281 1.289062 -1.90625 1.125 -1.90625 C 0.945312 -1.90625 0.75 -1.851562 0.53125 -1.75 L 0.421875 -2 C 0.523438 -2.050781 0.640625 -2.09375 0.765625 -2.125 C 0.890625 -2.15625 1.019531 -2.171875 1.15625 -2.171875 C 1.40625 -2.171875 1.59375 -2.113281 1.71875 -2 C 1.84375 -1.894531 1.90625 -1.71875 1.90625 -1.46875 L 1.90625 0 Z M 0.921875 -0.234375 C 1.128906 -0.234375 1.289062 -0.285156 1.40625 -0.390625 C 1.519531 -0.503906 1.578125 -0.660156 1.578125 -0.859375 L 1.578125 -1.046875 L 1.25 -1.046875 C 0.988281 -1.035156 0.800781 -0.992188 0.6875 -0.921875 C 0.582031 -0.847656 0.53125 -0.738281 0.53125 -0.59375 C 0.53125 -0.46875 0.5625 -0.375 0.625 -0.3125 C 0.695312 -0.257812 0.796875 -0.234375 0.921875 -0.234375 Z M 0.921875 -0.234375 "/></g></g></g><g clip-path="url(#fb00376cff)"><path fill="#737373" d="M 45 86.285156 L 38.476562 80.367188 C 15.300781 59.328125 0 45.445312 0 28.460938 C 0 14.578125 10.867188 3.710938 24.75 3.710938 C 32.578125 3.710938 40.09375 7.355469 45 13.09375 C 49.90625 7.355469 57.421875 3.710938 65.25 3.710938 C 79.132812 3.710938 90 14.578125 90 28.460938 C 90 45.445312 74.699219 59.328125 51.523438 80.367188 Z M 45 86.285156 " fill-opacity="1" fill-rule="nonzero"/></g></svg>