<svg xmlns="http://www.w3.org/2000/svg" xmlns:xlink="http://www.w3.org/1999/xlink" width="120" zoomAndPan="magnify" viewBox="0 0 90 89.999999" height="120" preserveAspectRatio="xMidYMid meet" version="1.0"><defs><clipPath id="df1c77a335"><path d="M 1.054688 6.050781 L 88.804688 6.050781 L 88.804688 84 L 1.054688 84 Z M 1.054688 6.050781 " clip-rule="nonzero"/></clipPath></defs><g clip-path="url(#df1c77a335)"><path fill="#737373" d="M 45 83.925781 L 44.066406 83.292969 C 43.960938 83.222656 33.257812 75.910156 22.710938 65.804688 C 16.488281 59.828125 11.511719 54.0625 7.925781 48.648438 C 3.375 41.722656 1.054688 35.304688 1.054688 29.609375 C 1.054688 16.636719 11.617188 6.074219 24.589844 6.074219 C 29.40625 6.074219 34.066406 7.550781 38.039062 10.363281 C 40.921875 12.402344 43.277344 15.003906 45 17.992188 C 46.722656 14.984375 49.078125 12.382812 51.960938 10.363281 C 55.933594 7.550781 60.589844 6.074219 65.40625 6.074219 C 78.378906 6.074219 88.945312 16.636719 88.945312 29.609375 L 88.945312 29.628906 C 88.890625 35.289062 86.554688 41.652344 81.984375 48.558594 C 78.398438 53.972656 73.441406 59.738281 67.21875 65.734375 C 56.6875 75.875 46.035156 83.222656 45.929688 83.292969 Z M 24.589844 9.359375 C 13.429688 9.359375 4.339844 18.449219 4.339844 29.609375 C 4.339844 34.65625 6.46875 40.4375 10.667969 46.800781 C 14.097656 52.003906 18.914062 57.59375 24.960938 63.394531 C 33.519531 71.605469 42.203125 77.949219 45 79.917969 C 47.792969 77.933594 56.425781 71.550781 64.96875 63.324219 C 70.996094 57.507812 75.796875 51.933594 79.242188 46.730469 C 83.441406 40.367188 85.605469 34.621094 85.640625 29.609375 C 85.640625 18.449219 76.550781 9.378906 65.390625 9.378906 C 57.109375 9.378906 49.535156 14.617188 46.511719 22.421875 L 44.980469 26.394531 L 43.46875 22.421875 C 40.445312 14.617188 32.871094 9.359375 24.589844 9.359375 Z M 24.589844 9.359375 " fill-opacity="1" fill-rule="nonzero"/></g></svg>