<svg xmlns="http://www.w3.org/2000/svg" xmlns:xlink="http://www.w3.org/1999/xlink" width="120" zoomAndPan="magnify" viewBox="0 0 90 89.999999" height="120" preserveAspectRatio="xMidYMid meet" version="1.0"><defs><g/><clipPath id="98942f8c48"><path d="M 8.734375 12.597656 L 82.746094 12.597656 L 82.746094 81 L 8.734375 81 Z M 8.734375 12.597656 " clip-rule="nonzero"/></clipPath><clipPath id="b799751dc5"><path d="M 81.640625 27.054688 C 79.3125 18.972656 71.792969 12.601562 62.90625 12.597656 C 55.441406 12.597656 48.957031 16.902344 45.679688 23.222656 C 42.402344 16.902344 35.917969 12.601562 28.457031 12.597656 C 19.15625 12.597656 11.023438 18.972656 9.425781 28.21875 C 5.300781 51.667969 31.042969 70.023438 45.738281 81 C 59.324219 70.851562 88.425781 50.160156 81.640625 27.054688 Z M 81.640625 27.054688 " clip-rule="nonzero"/></clipPath><clipPath id="beb394df1f"><path d="M 1 0.597656 L 74.746094 0.597656 L 74.746094 69 L 1 69 Z M 1 0.597656 " clip-rule="nonzero"/></clipPath><clipPath id="a66776e741"><path d="M 73.640625 15.054688 C 71.3125 6.972656 63.792969 0.601562 54.90625 0.597656 C 47.441406 0.597656 40.957031 4.902344 37.679688 11.222656 C 34.402344 4.902344 27.917969 0.601562 20.457031 0.597656 C 11.15625 0.597656 3.023438 6.972656 1.425781 16.21875 C -2.699219 39.667969 23.042969 58.023438 37.738281 69 C 51.324219 58.851562 80.425781 38.160156 73.640625 15.054688 Z M 73.640625 15.054688 " clip-rule="nonzero"/></clipPath><clipPath id="072dff82e2"><rect x="0" width="75" y="0" height="69"/></clipPath></defs><g fill="#000000" fill-opacity="1"><g transform="translate(55.919524, 46.876464)"><g><path d="M 0.34375 -0.421875 C 0.34375 -0.585938 0.382812 -0.710938 0.46875 -0.796875 C 0.5625 -0.878906 0.691406 -0.921875 0.859375 -0.921875 C 1.023438 -0.921875 1.148438 -0.875 1.234375 -0.78125 C 1.328125 -0.695312 1.375 -0.578125 1.375 -0.421875 C 1.375 -0.265625 1.328125 -0.140625 1.234375 -0.046875 C 1.140625 0.0351562 1.015625 0.078125 0.859375 0.078125 C 0.691406 0.078125 0.5625 0.0351562 0.46875 -0.046875 C 0.382812 -0.140625 0.34375 -0.265625 0.34375 -0.421875 Z M 0.34375 -0.421875 "/></g></g></g><g clip-path="url(#98942f8c48)"><g clip-path="url(#b799751dc5)"><g transform="matrix(1, 0, 0, 1, 8, 12)"><g clip-path="url(#072dff82e2)"><g clip-path="url(#beb394df1f)"><g clip-path="url(#a66776e741)"><path fill="#ffffff" d="M 1 0.597656 L 74.746094 0.597656 L 74.746094 69 L 1 69 Z M 1 0.597656 " fill-opacity="1" fill-rule="nonzero"/></g></g></g></g></g></g></svg>