<svg xmlns="http://www.w3.org/2000/svg" xmlns:xlink="http://www.w3.org/1999/xlink" width="120" zoomAndPan="magnify" viewBox="0 0 90 89.999999" height="120" preserveAspectRatio="xMidYMid meet" version="1.0"><defs><g/></defs><g fill="#000000" fill-opacity="1"><g transform="translate(11.519531, 54.749999)"><g><path d="M 0.34375 -0.421875 C 0.34375 -0.585938 0.382812 -0.710938 0.46875 -0.796875 C 0.5625 -0.878906 0.691406 -0.921875 0.859375 -0.921875 C 1.023438 -0.921875 1.148438 -0.875 1.234375 -0.78125 C 1.328125 -0.695312 1.375 -0.578125 1.375 -0.421875 C 1.375 -0.265625 1.328125 -0.140625 1.234375 -0.046875 C 1.140625 0.0351562 1.015625 0.078125 0.859375 0.078125 C 0.691406 0.078125 0.5625 0.0351562 0.46875 -0.046875 C 0.382812 -0.140625 0.34375 -0.265625 0.34375 -0.421875 Z M 0.34375 -0.421875 "/></g></g></g><path fill="#ffffff" d="M 30.082031 9.246094 C 26.253906 9.425781 23.636719 10.042969 21.351562 10.9375 C 18.984375 11.859375 16.980469 13.09375 14.984375 15.097656 C 12.988281 17.101562 11.761719 19.109375 10.847656 21.480469 C 9.964844 23.773438 9.363281 26.386719 9.191406 30.21875 C 9.023438 34.054688 8.988281 35.28125 9.003906 45.054688 C 9.019531 54.824219 9.0625 56.050781 9.246094 59.890625 C 9.429688 63.71875 10.042969 66.332031 10.9375 68.621094 C 11.859375 70.988281 13.09375 72.988281 15.097656 74.988281 C 17.101562 76.984375 19.109375 78.207031 21.480469 79.125 C 23.769531 80.007812 26.386719 80.613281 30.214844 80.78125 C 34.054688 80.949219 35.28125 80.988281 45.050781 80.964844 C 54.824219 80.949219 56.050781 80.90625 59.886719 80.722656 C 63.71875 80.539062 66.328125 79.925781 68.617188 79.03125 C 70.984375 78.105469 72.988281 76.875 74.984375 74.871094 C 76.976562 72.867188 78.207031 70.859375 79.121094 68.488281 C 80.007812 66.199219 80.609375 63.582031 80.777344 59.757812 C 80.941406 55.917969 80.984375 54.6875 80.964844 44.917969 C 80.949219 35.148438 80.902344 33.921875 80.722656 30.085938 C 80.539062 26.253906 79.929688 23.640625 79.03125 21.351562 C 78.105469 18.984375 76.875 16.984375 74.871094 14.984375 C 72.867188 12.992188 70.859375 11.761719 68.488281 10.847656 C 66.199219 9.964844 63.582031 9.359375 59.753906 9.191406 C 55.914062 9.023438 54.6875 8.988281 44.914062 9.003906 C 35.144531 9.019531 33.921875 9.0625 30.082031 9.246094 M 30.5 74.296875 C 26.996094 74.144531 25.089844 73.5625 23.816406 73.074219 C 22.136719 72.421875 20.9375 71.644531 19.671875 70.390625 C 18.410156 69.132812 17.632812 67.9375 16.972656 66.261719 C 16.480469 64.992188 15.886719 63.089844 15.722656 59.578125 C 15.542969 55.789062 15.5 54.648438 15.484375 45.039062 C 15.46875 35.4375 15.5 34.296875 15.667969 30.5 C 15.816406 26.996094 16.402344 25.089844 16.890625 23.820312 C 17.542969 22.136719 18.320312 20.941406 19.574219 19.675781 C 20.832031 18.414062 22.03125 17.632812 23.707031 16.976562 C 24.976562 16.480469 26.878906 15.890625 30.386719 15.726562 C 34.179688 15.546875 35.316406 15.507812 44.925781 15.488281 C 54.535156 15.46875 55.671875 15.5 59.46875 15.671875 C 62.972656 15.824219 64.878906 16.402344 66.148438 16.894531 C 67.832031 17.546875 69.03125 18.320312 70.292969 19.578125 C 71.554688 20.835938 72.339844 22.03125 72.992188 23.710938 C 73.488281 24.976562 74.078125 26.882812 74.246094 30.386719 C 74.425781 34.179688 74.464844 35.320312 74.480469 44.925781 C 74.5 54.535156 74.464844 55.671875 74.296875 59.464844 C 74.144531 62.972656 73.5625 64.878906 73.074219 66.148438 C 72.421875 67.828125 71.644531 69.027344 70.386719 70.289062 C 69.128906 71.546875 67.9375 72.332031 66.253906 72.988281 C 64.988281 73.484375 63.082031 74.074219 59.578125 74.242188 C 55.785156 74.421875 54.648438 74.460938 45.039062 74.476562 C 35.433594 74.496094 34.292969 74.460938 30.5 74.296875 M 59.835938 25.75 C 59.839844 28.132812 61.78125 30.0625 64.160156 30.058594 C 66.546875 30.054688 68.476562 28.117188 68.472656 25.734375 C 68.46875 23.347656 66.527344 21.417969 64.144531 21.421875 C 61.761719 21.425781 59.832031 23.367188 59.835938 25.746094 M 26.507812 45.019531 C 26.527344 55.226562 34.816406 63.480469 45.015625 63.460938 C 55.222656 63.4375 63.480469 55.152344 63.460938 44.949219 C 63.4375 34.746094 55.152344 26.488281 44.945312 26.507812 C 34.746094 26.527344 26.484375 34.816406 26.507812 45.019531 M 32.988281 45.007812 C 32.976562 38.382812 38.335938 33 44.960938 32.992188 C 51.582031 32.976562 56.964844 38.335938 56.980469 44.960938 C 56.992188 51.585938 51.628906 56.96875 45.007812 56.980469 C 38.382812 56.992188 33 51.628906 32.992188 45.007812 " fill-opacity="1" fill-rule="nonzero"/></svg>