<svg xmlns="http://www.w3.org/2000/svg" xmlns:xlink="http://www.w3.org/1999/xlink" width="150" zoomAndPan="magnify" viewBox="0 0 112.5 74.999997" height="100" preserveAspectRatio="xMidYMid meet" version="1.0"><defs><g/><clipPath id="c0acc6a84e"><path d="M 24 45 L 27 45 L 27 49 L 24 49 Z M 24 45 " clip-rule="nonzero"/></clipPath><clipPath id="cb64e79cb9"><path d="M 0 37.5 L 20.0625 17.4375 L 40.128906 37.5 L 20.0625 57.5625 Z M 0 37.5 " clip-rule="nonzero"/></clipPath><clipPath id="2464d6f2e8"><path d="M 0 37.5 L 20.0625 17.4375 L 40.128906 37.5 L 20.0625 57.5625 Z M 0 37.5 " clip-rule="nonzero"/></clipPath><clipPath id="8419bf3cf6"><path d="M 13 45 L 16 45 L 16 49 L 13 49 Z M 13 45 " clip-rule="nonzero"/></clipPath><clipPath id="afead1baa1"><path d="M 0 37.5 L 20.0625 17.4375 L 40.128906 37.5 L 20.0625 57.5625 Z M 0 37.5 " clip-rule="nonzero"/></clipPath><clipPath id="b9c2766936"><path d="M 0 37.5 L 20.0625 17.4375 L 40.128906 37.5 L 20.0625 57.5625 Z M 0 37.5 " clip-rule="nonzero"/></clipPath><clipPath id="f027f2265a"><path d="M 13 26 L 16 26 L 16 30 L 13 30 Z M 13 26 " clip-rule="nonzero"/></clipPath><clipPath id="42231fedf6"><path d="M 0 37.5 L 20.0625 17.4375 L 40.128906 37.5 L 20.0625 57.5625 Z M 0 37.5 " clip-rule="nonzero"/></clipPath><clipPath id="6a46b66350"><path d="M 0 37.5 L 20.0625 17.4375 L 40.128906 37.5 L 20.0625 57.5625 Z M 0 37.5 " clip-rule="nonzero"/></clipPath><clipPath id="02dcaa65ed"><path d="M 24 26 L 27 26 L 27 30 L 24 30 Z M 24 26 " clip-rule="nonzero"/></clipPath><clipPath id="ddcb076a25"><path d="M 0 37.5 L 20.0625 17.4375 L 40.128906 37.5 L 20.0625 57.5625 Z M 0 37.5 " clip-rule="nonzero"/></clipPath><clipPath id="fa645fa4ce"><path d="M 0 37.5 L 20.0625 17.4375 L 40.128906 37.5 L 20.0625 57.5625 Z M 0 37.5 " clip-rule="nonzero"/></clipPath><clipPath id="c2df514562"><path d="M 14 47 L 26 47 L 26 55 L 14 55 Z M 14 47 " clip-rule="nonzero"/></clipPath><clipPath id="8509f4ca56"><path d="M 0 37.5 L 20.0625 17.4375 L 40.128906 37.5 L 20.0625 57.5625 Z M 0 37.5 " clip-rule="nonzero"/></clipPath><clipPath id="2ea20dbb61"><path d="M 0 37.5 L 20.0625 17.4375 L 40.128906 37.5 L 20.0625 57.5625 Z M 0 37.5 " clip-rule="nonzero"/></clipPath><clipPath id="baaa39f96f"><path d="M 14 20 L 26 20 L 26 28 L 14 28 Z M 14 20 " clip-rule="nonzero"/></clipPath><clipPath id="c8de8b5196"><path d="M 0 37.5 L 20.0625 17.4375 L 40.128906 37.5 L 20.0625 57.5625 Z M 0 37.5 " clip-rule="nonzero"/></clipPath><clipPath id="b4bd62c543"><path d="M 0 37.5 L 20.0625 17.4375 L 40.128906 37.5 L 20.0625 57.5625 Z M 0 37.5 " clip-rule="nonzero"/></clipPath><clipPath id="204d995b34"><path d="M 14 28 L 26 28 L 26 47 L 14 47 Z M 14 28 " clip-rule="nonzero"/></clipPath><clipPath id="8c28a1c745"><path d="M 0 37.5 L 20.0625 17.4375 L 40.128906 37.5 L 20.0625 57.5625 Z M 0 37.5 " clip-rule="nonzero"/></clipPath><clipPath id="e2de012497"><path d="M 0 37.5 L 20.0625 17.4375 L 40.128906 37.5 L 20.0625 57.5625 Z M 0 37.5 " clip-rule="nonzero"/></clipPath><clipPath id="5dc9bab5db"><path d="M 32 24 L 112.003906 24 L 112.003906 48 L 32 48 Z M 32 24 " clip-rule="nonzero"/></clipPath><clipPath id="8442d2cd08"><path d="M 0.496094 2 L 17 2 L 17 18 L 0.496094 18 Z M 0.496094 2 " clip-rule="nonzero"/></clipPath><clipPath id="d7df2fed8a"><rect x="0" width="81" y="0" height="24"/></clipPath><clipPath id="0e9ecf71d7"><path d="M 0.105469 6 L 1 6 L 1 7 L 0.105469 7 Z M 0.105469 6 " clip-rule="nonzero"/></clipPath><clipPath id="0bbb5fa634"><rect x="0" width="82" y="0" height="9"/></clipPath></defs><g clip-path="url(#c0acc6a84e)"><g clip-path="url(#cb64e79cb9)"><g clip-path="url(#2464d6f2e8)"><path fill="#ffffff" d="M 26.355469 45.960938 L 26.355469 48.394531 C 26.34375 48.578125 26.25 48.675781 26.0625 48.6875 L 25.066406 48.6875 C 24.882812 48.675781 24.785156 48.578125 24.773438 48.394531 L 24.773438 45.960938 C 24.773438 45.890625 24.796875 45.832031 24.835938 45.777344 C 24.859375 45.730469 24.894531 45.691406 24.945312 45.667969 L 25.308594 45.667969 L 25.785156 45.679688 L 25.867188 45.59375 L 26.027344 45.582031 C 26.132812 45.574219 26.21875 45.609375 26.289062 45.6875 C 26.355469 45.765625 26.378906 45.855469 26.355469 45.960938 Z M 26.355469 45.960938 " fill-opacity="1" fill-rule="nonzero"/></g></g></g><g clip-path="url(#8419bf3cf6)"><g clip-path="url(#afead1baa1)"><g clip-path="url(#b9c2766936)"><path fill="#ffffff" d="M 15.132812 46.007812 L 15.132812 48.441406 C 15.140625 48.523438 15.113281 48.589844 15.058594 48.648438 C 15 48.707031 14.933594 48.730469 14.851562 48.722656 L 14.472656 48.808594 L 14 48.820312 L 13.816406 48.757812 C 13.734375 48.765625 13.664062 48.738281 13.605469 48.679688 C 13.546875 48.621094 13.519531 48.550781 13.523438 48.46875 L 13.523438 46.03125 C 13.558594 45.96875 13.605469 45.917969 13.671875 45.886719 C 13.699219 45.816406 13.75 45.769531 13.816406 45.742188 L 14.828125 45.753906 C 14.90625 45.738281 14.976562 45.757812 15.039062 45.808594 C 15.101562 45.859375 15.132812 45.925781 15.132812 46.007812 Z M 15.132812 46.007812 " fill-opacity="1" fill-rule="nonzero"/></g></g></g><g clip-path="url(#f027f2265a)"><g clip-path="url(#42231fedf6)"><g clip-path="url(#6a46b66350)"><path fill="#ffffff" d="M 15.058594 26.289062 C 15.089844 26.335938 15.101562 26.386719 15.09375 26.445312 L 15.09375 28.878906 C 15.0625 28.976562 14.996094 29.042969 14.902344 29.074219 C 14.886719 29.101562 14.867188 29.121094 14.839844 29.136719 L 13.839844 29.257812 C 13.757812 29.261719 13.6875 29.234375 13.628906 29.175781 C 13.570312 29.117188 13.542969 29.046875 13.550781 28.964844 L 13.550781 26.53125 C 13.539062 26.433594 13.570312 26.351562 13.648438 26.289062 C 13.699219 26.25 13.753906 26.234375 13.816406 26.238281 L 14.816406 26.238281 C 14.902344 26.21875 14.984375 26.234375 15.058594 26.289062 Z M 15.058594 26.289062 " fill-opacity="1" fill-rule="nonzero"/></g></g></g><g clip-path="url(#02dcaa65ed)"><g clip-path="url(#ddcb076a25)"><g clip-path="url(#fa645fa4ce)"><path fill="#ffffff" d="M 26.378906 26.457031 L 26.378906 28.890625 C 26.371094 29.078125 26.273438 29.175781 26.089844 29.183594 L 25.089844 29.183594 C 24.90625 29.175781 24.808594 29.078125 24.796875 28.890625 L 24.796875 26.457031 C 24.828125 26.390625 24.875 26.34375 24.945312 26.3125 C 24.976562 26.25 25.027344 26.199219 25.089844 26.164062 L 26.089844 26.164062 C 26.273438 26.175781 26.371094 26.273438 26.378906 26.457031 Z M 26.378906 26.457031 " fill-opacity="1" fill-rule="nonzero"/></g></g></g><g clip-path="url(#c2df514562)"><g clip-path="url(#8509f4ca56)"><g clip-path="url(#2ea20dbb61)"><path fill="#ffffff" d="M 25.113281 49.464844 L 25.273438 49.476562 C 25.257812 49.816406 25.210938 50.148438 25.132812 50.480469 C 25.054688 50.808594 24.945312 51.128906 24.804688 51.4375 C 24.667969 51.746094 24.5 52.035156 24.304688 52.3125 C 24.109375 52.589844 23.886719 52.84375 23.644531 53.078125 C 23.398438 53.3125 23.136719 53.523438 22.851562 53.707031 C 22.566406 53.890625 22.265625 54.042969 21.953125 54.171875 C 21.640625 54.296875 21.316406 54.394531 20.984375 54.457031 C 20.652344 54.523438 20.316406 54.554688 19.976562 54.554688 C 19.273438 54.5625 18.597656 54.429688 17.949219 54.160156 C 17.300781 53.894531 16.730469 53.507812 16.238281 53.007812 C 15.261719 52.035156 14.742188 50.855469 14.679688 49.476562 L 14.851562 49.476562 C 15.09375 49.457031 15.304688 49.363281 15.476562 49.1875 C 15.648438 49.015625 15.746094 48.808594 15.765625 48.566406 L 15.765625 47.640625 L 24.105469 47.652344 L 24.105469 48.550781 C 24.117188 48.816406 24.222656 49.039062 24.421875 49.21875 C 24.617188 49.394531 24.847656 49.480469 25.113281 49.464844 Z M 25.113281 49.464844 " fill-opacity="1" fill-rule="nonzero"/></g></g></g><g clip-path="url(#baaa39f96f)"><g clip-path="url(#c8de8b5196)"><g clip-path="url(#b4bd62c543)"><path fill="#ffffff" d="M 23.714844 21.992188 C 24.707031 22.957031 25.226562 24.132812 25.273438 25.519531 L 25.101562 25.519531 C 24.855469 25.535156 24.648438 25.632812 24.472656 25.804688 C 24.300781 25.980469 24.207031 26.1875 24.1875 26.433594 L 24.199219 27.347656 L 15.8125 27.40625 L 15.8125 26.480469 C 15.800781 26.269531 15.726562 26.082031 15.59375 25.914062 C 15.457031 25.75 15.289062 25.636719 15.082031 25.582031 L 14.851562 25.519531 L 14.679688 25.519531 C 14.695312 25.183594 14.742188 24.847656 14.820312 24.519531 C 14.898438 24.191406 15.007812 23.871094 15.148438 23.5625 C 15.285156 23.253906 15.453125 22.960938 15.648438 22.683594 C 15.84375 22.410156 16.066406 22.152344 16.308594 21.917969 C 16.554688 21.683594 16.820312 21.476562 17.101562 21.292969 C 17.386719 21.109375 17.6875 20.953125 18 20.828125 C 18.316406 20.699219 18.636719 20.605469 18.96875 20.542969 C 19.304688 20.476562 19.636719 20.445312 19.976562 20.445312 C 20.679688 20.4375 21.355469 20.566406 22.003906 20.835938 C 22.652344 21.105469 23.222656 21.488281 23.714844 21.992188 Z M 23.714844 21.992188 " fill-opacity="1" fill-rule="nonzero"/></g></g></g><g clip-path="url(#204d995b34)"><g clip-path="url(#8c28a1c745)"><g clip-path="url(#e2de012497)"><path fill="#ffffff" d="M 25.285156 29.988281 L 25.296875 45.023438 L 25.125 45.023438 C 24.941406 45.058594 24.785156 45.144531 24.652344 45.277344 C 24.511719 45.414062 24.425781 45.574219 24.382812 45.765625 L 24.394531 46.679688 L 20.316406 46.933594 L 20.316406 46.128906 L 19.636719 46.128906 L 19.648438 46.921875 L 15.800781 46.921875 L 15.8125 46.007812 C 15.8125 45.742188 15.71875 45.515625 15.53125 45.328125 C 15.34375 45.140625 15.117188 45.046875 14.851562 45.046875 L 14.679688 45.046875 L 14.679688 29.953125 L 14.851562 29.953125 C 15.113281 29.945312 15.335938 29.855469 15.519531 29.671875 L 15.726562 29.464844 C 15.796875 29.320312 15.832031 29.171875 15.839844 29.015625 L 15.839844 28.089844 L 19.648438 28.078125 L 19.648438 28.855469 L 20.316406 28.867188 L 20.316406 28.066406 L 24.152344 28.078125 L 24.140625 28.988281 L 24.117188 29.234375 L 24.359375 29.476562 C 24.398438 29.527344 24.441406 29.570312 24.492188 29.609375 C 24.679688 29.789062 24.902344 29.882812 25.164062 29.890625 Z M 25.285156 29.988281 " fill-opacity="1" fill-rule="nonzero"/></g></g></g><g clip-path="url(#5dc9bab5db)"><g transform="matrix(1, 0, 0, 1, 32, 24)"><g clip-path="url(#d7df2fed8a)"><g clip-path="url(#8442d2cd08)"><g fill="#ffffff" fill-opacity="1"><g transform="translate(1.301846, 17.296084)"><g><path d="M 5.890625 0 L -0.515625 -15.28125 L 3.40625 -15.28125 L 7.265625 -5.25 L 11.125 -15.28125 L 15.046875 -15.28125 L 8.640625 0 Z M 5.890625 0 "/></g></g></g></g><g fill="#ffffff" fill-opacity="1"><g transform="translate(23.279087, 17.296084)"><g><path d="M 9.859375 -15.28125 L 9.859375 -12.234375 L 4.59375 -12.234375 L 4.59375 -9.1875 L 9.640625 -9.1875 L 9.640625 -6.140625 L 4.59375 -6.140625 L 4.59375 -3.0625 L 9.859375 -3.0625 L 9.859375 0 L 1.109375 0 L 1.109375 -15.28125 Z M 9.859375 -15.28125 "/></g></g></g><g fill="#ffffff" fill-opacity="1"><g transform="translate(41.476092, 17.296084)"><g><path d="M 1.109375 -15.28125 L 6.578125 -15.28125 C 8.046875 -15.28125 9.242188 -14.890625 10.171875 -14.109375 C 11.097656 -13.328125 11.5625 -12.207031 11.5625 -10.75 C 11.5625 -9.625 11.28125 -8.679688 10.71875 -7.921875 C 10.15625 -7.160156 9.394531 -6.625 8.4375 -6.3125 L 13.6875 0 L 9.265625 0 L 4.59375 -6.046875 L 4.59375 0 L 1.109375 0 Z M 4.59375 -8.5 L 5 -8.5 C 5.320312 -8.5 5.59375 -8.503906 5.8125 -8.515625 C 6.039062 -8.535156 6.296875 -8.582031 6.578125 -8.65625 C 6.859375 -8.726562 7.085938 -8.832031 7.265625 -8.96875 C 7.441406 -9.101562 7.585938 -9.300781 7.703125 -9.5625 C 7.828125 -9.820312 7.890625 -10.132812 7.890625 -10.5 C 7.890625 -10.875 7.828125 -11.191406 7.703125 -11.453125 C 7.585938 -11.710938 7.441406 -11.910156 7.265625 -12.046875 C 7.085938 -12.179688 6.859375 -12.285156 6.578125 -12.359375 C 6.296875 -12.429688 6.039062 -12.472656 5.8125 -12.484375 C 5.59375 -12.503906 5.320312 -12.515625 5 -12.515625 L 4.59375 -12.515625 Z M 4.59375 -8.5 "/></g></g></g><g fill="#ffffff" fill-opacity="1"><g transform="translate(61.452032, 17.296084)"><g><path d="M 0.140625 -12.234375 L 0.140625 -15.28125 L 10.890625 -15.28125 L 10.890625 -12.234375 L 7.265625 -12.234375 L 7.265625 0 L 3.78125 0 L 3.78125 -12.234375 Z M 0.140625 -12.234375 "/></g></g></g></g></g></g><g transform="matrix(1, 0, 0, 1, 30, 43)"><g clip-path="url(#0bbb5fa634)"><g clip-path="url(#0e9ecf71d7)"><g fill="#ffffff" fill-opacity="1"><g transform="translate(0.387501, 6.231518)"><g/></g></g></g><g fill="#ffffff" fill-opacity="1"><g transform="translate(2.768932, 6.231518)"><g><path d="M 2.515625 0 L 0.40625 0 C 0.34375 0 0.3125 -0.0234375 0.3125 -0.078125 L 0.3125 -0.40625 C 0.3125 -0.457031 0.34375 -0.484375 0.40625 -0.484375 L 0.90625 -0.484375 L 0.90625 -4.21875 L 0.40625 -4.21875 C 0.34375 -4.21875 0.3125 -4.242188 0.3125 -4.296875 L 0.3125 -4.640625 C 0.3125 -4.691406 0.34375 -4.71875 0.40625 -4.71875 L 2.515625 -4.71875 C 2.953125 -4.71875 3.289062 -4.597656 3.53125 -4.359375 C 3.769531 -4.128906 3.890625 -3.828125 3.890625 -3.453125 C 3.890625 -3.003906 3.695312 -2.671875 3.3125 -2.453125 C 3.875 -2.296875 4.15625 -1.925781 4.15625 -1.34375 C 4.15625 -0.9375 4.015625 -0.609375 3.734375 -0.359375 C 3.460938 -0.117188 3.054688 0 2.515625 0 Z M 1.46875 -0.484375 L 2.46875 -0.484375 C 2.820312 -0.484375 3.09375 -0.554688 3.28125 -0.703125 C 3.476562 -0.859375 3.578125 -1.085938 3.578125 -1.390625 C 3.578125 -1.941406 3.222656 -2.21875 2.515625 -2.21875 L 1.46875 -2.21875 Z M 1.46875 -2.640625 L 2.46875 -2.640625 C 2.695312 -2.648438 2.894531 -2.71875 3.0625 -2.84375 C 3.238281 -2.96875 3.328125 -3.164062 3.328125 -3.4375 C 3.328125 -3.707031 3.234375 -3.90625 3.046875 -4.03125 C 2.867188 -4.15625 2.65625 -4.21875 2.40625 -4.21875 L 1.46875 -4.21875 Z M 1.46875 -2.640625 "/></g></g></g><g fill="#ffffff" fill-opacity="1"><g transform="translate(7.377361, 6.231518)"><g><path d="M 3.875 -1.703125 L 3.875 -4.21875 L 3.359375 -4.21875 C 3.304688 -4.21875 3.28125 -4.242188 3.28125 -4.296875 L 3.28125 -4.640625 C 3.28125 -4.691406 3.304688 -4.71875 3.359375 -4.71875 L 4.953125 -4.71875 C 5.003906 -4.71875 5.03125 -4.691406 5.03125 -4.640625 L 5.03125 -4.296875 C 5.03125 -4.242188 5.003906 -4.21875 4.953125 -4.21875 L 4.4375 -4.21875 L 4.4375 -1.765625 C 4.4375 -1.171875 4.28125 -0.71875 3.96875 -0.40625 C 3.664062 -0.101562 3.234375 0.046875 2.671875 0.046875 C 2.109375 0.046875 1.671875 -0.101562 1.359375 -0.40625 C 1.054688 -0.71875 0.90625 -1.171875 0.90625 -1.765625 L 0.90625 -4.21875 L 0.40625 -4.21875 C 0.34375 -4.21875 0.3125 -4.242188 0.3125 -4.296875 L 0.3125 -4.640625 C 0.3125 -4.691406 0.34375 -4.71875 0.40625 -4.71875 L 1.96875 -4.71875 C 2.03125 -4.71875 2.0625 -4.691406 2.0625 -4.640625 L 2.0625 -4.296875 C 2.0625 -4.242188 2.03125 -4.21875 1.96875 -4.21875 L 1.46875 -4.21875 L 1.46875 -1.75 C 1.46875 -0.90625 1.867188 -0.484375 2.671875 -0.484375 C 3.085938 -0.484375 3.390625 -0.59375 3.578125 -0.8125 C 3.773438 -1.03125 3.875 -1.328125 3.875 -1.703125 Z M 3.875 -1.703125 "/></g></g></g><g fill="#ffffff" fill-opacity="1"><g transform="translate(12.857654, 6.231518)"><g><path d="M 1.96875 0 L 0.40625 0 C 0.34375 0 0.3125 -0.0234375 0.3125 -0.078125 L 0.3125 -0.40625 C 0.3125 -0.457031 0.34375 -0.484375 0.40625 -0.484375 L 0.90625 -0.484375 L 0.90625 -4.21875 L 0.40625 -4.21875 C 0.34375 -4.21875 0.3125 -4.242188 0.3125 -4.296875 L 0.3125 -4.640625 C 0.3125 -4.691406 0.34375 -4.71875 0.40625 -4.71875 L 1.96875 -4.71875 C 2.03125 -4.71875 2.0625 -4.691406 2.0625 -4.640625 L 2.0625 -4.296875 C 2.0625 -4.242188 2.03125 -4.21875 1.96875 -4.21875 L 1.46875 -4.21875 L 1.46875 -0.484375 L 1.96875 -0.484375 C 2.03125 -0.484375 2.0625 -0.457031 2.0625 -0.40625 L 2.0625 -0.078125 C 2.0625 -0.0234375 2.03125 0 1.96875 0 Z M 1.96875 0 "/></g></g></g><g fill="#ffffff" fill-opacity="1"><g transform="translate(15.525686, 6.231518)"><g><path d="M 3.984375 0 L 0.40625 0 C 0.34375 0 0.3125 -0.0234375 0.3125 -0.078125 L 0.3125 -0.40625 C 0.3125 -0.457031 0.34375 -0.484375 0.40625 -0.484375 L 0.90625 -0.484375 L 0.90625 -4.21875 L 0.40625 -4.21875 C 0.34375 -4.21875 0.3125 -4.242188 0.3125 -4.296875 L 0.3125 -4.640625 C 0.3125 -4.691406 0.34375 -4.71875 0.40625 -4.71875 L 1.96875 -4.71875 C 2.019531 -4.71875 2.046875 -4.6875 2.046875 -4.625 L 2.046875 -4.3125 C 2.046875 -4.25 2.019531 -4.21875 1.96875 -4.21875 L 1.46875 -4.21875 L 1.46875 -0.484375 L 3.5625 -0.484375 L 3.5625 -1.140625 C 3.5625 -1.191406 3.585938 -1.21875 3.640625 -1.21875 L 4 -1.21875 C 4.050781 -1.21875 4.078125 -1.191406 4.078125 -1.140625 L 4.078125 -0.078125 C 4.078125 -0.0234375 4.046875 0 3.984375 0 Z M 3.984375 0 "/></g></g></g><g fill="#ffffff" fill-opacity="1"><g transform="translate(19.301586, 6.231518)"><g><path d="M 3.140625 0 L 1.609375 0 C 1.546875 0 1.515625 -0.0234375 1.515625 -0.078125 L 1.515625 -0.40625 C 1.515625 -0.457031 1.546875 -0.484375 1.609375 -0.484375 L 2.109375 -0.484375 L 2.109375 -4.21875 L 0.859375 -4.21875 L 0.859375 -3.53125 C 0.859375 -3.46875 0.832031 -3.4375 0.78125 -3.4375 L 0.40625 -3.4375 C 0.34375 -3.4375 0.3125 -3.46875 0.3125 -3.53125 L 0.3125 -4.625 C 0.3125 -4.6875 0.34375 -4.71875 0.40625 -4.71875 L 4.359375 -4.71875 C 4.421875 -4.71875 4.453125 -4.6875 4.453125 -4.625 L 4.453125 -3.53125 C 4.453125 -3.46875 4.421875 -3.4375 4.359375 -3.4375 L 3.984375 -3.4375 C 3.929688 -3.4375 3.90625 -3.46875 3.90625 -3.53125 L 3.90625 -4.21875 L 2.671875 -4.21875 L 2.671875 -0.484375 L 3.140625 -0.484375 C 3.203125 -0.484375 3.234375 -0.457031 3.234375 -0.40625 L 3.234375 -0.078125 C 3.234375 -0.0234375 3.203125 0 3.140625 0 Z M 3.140625 0 "/></g></g></g><g fill="#ffffff" fill-opacity="1"><g transform="translate(24.395111, 6.231518)"><g/></g></g><g fill="#ffffff" fill-opacity="1"><g transform="translate(26.774708, 6.231518)"><g><path d="M 3.140625 0 L 1.609375 0 C 1.546875 0 1.515625 -0.0234375 1.515625 -0.078125 L 1.515625 -0.40625 C 1.515625 -0.457031 1.546875 -0.484375 1.609375 -0.484375 L 2.109375 -0.484375 L 2.109375 -4.21875 L 0.859375 -4.21875 L 0.859375 -3.53125 C 0.859375 -3.46875 0.832031 -3.4375 0.78125 -3.4375 L 0.40625 -3.4375 C 0.34375 -3.4375 0.3125 -3.46875 0.3125 -3.53125 L 0.3125 -4.625 C 0.3125 -4.6875 0.34375 -4.71875 0.40625 -4.71875 L 4.359375 -4.71875 C 4.421875 -4.71875 4.453125 -4.6875 4.453125 -4.625 L 4.453125 -3.53125 C 4.453125 -3.46875 4.421875 -3.4375 4.359375 -3.4375 L 3.984375 -3.4375 C 3.929688 -3.4375 3.90625 -3.46875 3.90625 -3.53125 L 3.90625 -4.21875 L 2.671875 -4.21875 L 2.671875 -0.484375 L 3.140625 -0.484375 C 3.203125 -0.484375 3.234375 -0.457031 3.234375 -0.40625 L 3.234375 -0.078125 C 3.234375 -0.0234375 3.203125 0 3.140625 0 Z M 3.140625 0 "/></g></g></g><g fill="#ffffff" fill-opacity="1"><g transform="translate(31.671572, 6.231518)"><g><path d="M 4.875 -2.375 C 4.875 -1.65625 4.660156 -1.070312 4.234375 -0.625 C 3.804688 -0.175781 3.265625 0.046875 2.609375 0.046875 C 1.953125 0.046875 1.40625 -0.175781 0.96875 -0.625 C 0.53125 -1.082031 0.3125 -1.664062 0.3125 -2.375 C 0.3125 -3.09375 0.535156 -3.664062 0.984375 -4.09375 C 1.441406 -4.53125 1.984375 -4.75 2.609375 -4.75 C 3.234375 -4.75 3.765625 -4.53125 4.203125 -4.09375 C 4.648438 -3.664062 4.875 -3.09375 4.875 -2.375 Z M 1.4375 -0.984375 C 1.769531 -0.648438 2.160156 -0.484375 2.609375 -0.484375 C 3.054688 -0.484375 3.441406 -0.648438 3.765625 -0.984375 C 4.097656 -1.316406 4.265625 -1.773438 4.265625 -2.359375 C 4.265625 -2.941406 4.09375 -3.398438 3.75 -3.734375 C 3.414062 -4.066406 3.03125 -4.234375 2.59375 -4.234375 C 2.164062 -4.234375 1.78125 -4.066406 1.4375 -3.734375 C 1.101562 -3.398438 0.9375 -2.941406 0.9375 -2.359375 C 0.9375 -1.773438 1.101562 -1.316406 1.4375 -0.984375 Z M 1.4375 -0.984375 "/></g></g></g><g fill="#ffffff" fill-opacity="1"><g transform="translate(37.197752, 6.231518)"><g/></g></g><g fill="#ffffff" fill-opacity="1"><g transform="translate(39.577349, 6.231518)"><g><path d="M 4.53125 0 L 4.1875 0 C 4.125 0 4.09375 -0.0234375 4.09375 -0.078125 L 4.09375 -0.53125 C 3.71875 -0.144531 3.207031 0.046875 2.5625 0.046875 C 1.914062 0.046875 1.378906 -0.175781 0.953125 -0.625 C 0.523438 -1.070312 0.3125 -1.65625 0.3125 -2.375 C 0.3125 -2.863281 0.421875 -3.289062 0.640625 -3.65625 C 0.859375 -4.03125 1.132812 -4.304688 1.46875 -4.484375 C 1.800781 -4.660156 2.160156 -4.75 2.546875 -4.75 C 3.222656 -4.75 3.707031 -4.539062 4 -4.125 L 3.984375 -4.640625 C 3.984375 -4.691406 4.007812 -4.71875 4.0625 -4.71875 L 4.4375 -4.71875 C 4.488281 -4.71875 4.515625 -4.691406 4.515625 -4.640625 L 4.515625 -3.28125 C 4.515625 -3.226562 4.488281 -3.203125 4.4375 -3.203125 L 4.015625 -3.203125 C 3.960938 -3.203125 3.9375 -3.226562 3.9375 -3.28125 L 3.9375 -3.359375 C 3.9375 -3.554688 3.804688 -3.75 3.546875 -3.9375 C 3.285156 -4.125 2.945312 -4.21875 2.53125 -4.21875 C 2.125 -4.21875 1.753906 -4.046875 1.421875 -3.703125 C 1.085938 -3.367188 0.921875 -2.914062 0.921875 -2.34375 C 0.921875 -1.78125 1.085938 -1.332031 1.421875 -1 C 1.753906 -0.664062 2.125 -0.5 2.53125 -0.5 C 2.945312 -0.5 3.273438 -0.566406 3.515625 -0.703125 C 3.753906 -0.835938 3.929688 -0.992188 4.046875 -1.171875 L 4.046875 -1.6875 L 2.828125 -1.6875 C 2.773438 -1.6875 2.75 -1.710938 2.75 -1.765625 L 2.75 -2.0625 C 2.75 -2.113281 2.773438 -2.140625 2.828125 -2.140625 L 4.53125 -2.140625 C 4.582031 -2.140625 4.609375 -2.113281 4.609375 -2.0625 L 4.609375 -0.078125 C 4.609375 -0.0234375 4.582031 0 4.53125 0 Z M 4.53125 0 "/></g></g></g><g fill="#ffffff" fill-opacity="1"><g transform="translate(44.821647, 6.231518)"><g><path d="M 4.875 -2.375 C 4.875 -1.65625 4.660156 -1.070312 4.234375 -0.625 C 3.804688 -0.175781 3.265625 0.046875 2.609375 0.046875 C 1.953125 0.046875 1.40625 -0.175781 0.96875 -0.625 C 0.53125 -1.082031 0.3125 -1.664062 0.3125 -2.375 C 0.3125 -3.09375 0.535156 -3.664062 0.984375 -4.09375 C 1.441406 -4.53125 1.984375 -4.75 2.609375 -4.75 C 3.234375 -4.75 3.765625 -4.53125 4.203125 -4.09375 C 4.648438 -3.664062 4.875 -3.09375 4.875 -2.375 Z M 1.4375 -0.984375 C 1.769531 -0.648438 2.160156 -0.484375 2.609375 -0.484375 C 3.054688 -0.484375 3.441406 -0.648438 3.765625 -0.984375 C 4.097656 -1.316406 4.265625 -1.773438 4.265625 -2.359375 C 4.265625 -2.941406 4.09375 -3.398438 3.75 -3.734375 C 3.414062 -4.066406 3.03125 -4.234375 2.59375 -4.234375 C 2.164062 -4.234375 1.78125 -4.066406 1.4375 -3.734375 C 1.101562 -3.398438 0.9375 -2.941406 0.9375 -2.359375 C 0.9375 -1.773438 1.101562 -1.316406 1.4375 -0.984375 Z M 1.4375 -0.984375 "/></g></g></g><g fill="#ffffff" fill-opacity="1"><g transform="translate(50.347828, 6.231518)"><g/></g></g><g fill="#ffffff" fill-opacity="1"><g transform="translate(52.727425, 6.231518)"><g><path d="M 4.984375 0 L 3.40625 0 C 3.351562 0 3.328125 -0.0234375 3.328125 -0.078125 L 3.328125 -0.40625 C 3.328125 -0.457031 3.351562 -0.484375 3.40625 -0.484375 L 3.90625 -0.484375 L 3.90625 -2.09375 L 1.46875 -2.09375 L 1.46875 -0.484375 L 1.96875 -0.484375 C 2.03125 -0.484375 2.0625 -0.457031 2.0625 -0.40625 L 2.0625 -0.078125 C 2.0625 -0.0234375 2.03125 0 1.96875 0 L 0.40625 0 C 0.34375 0 0.3125 -0.0234375 0.3125 -0.078125 L 0.3125 -0.40625 C 0.3125 -0.457031 0.34375 -0.484375 0.40625 -0.484375 L 0.90625 -0.484375 L 0.90625 -4.21875 L 0.40625 -4.21875 C 0.34375 -4.21875 0.3125 -4.242188 0.3125 -4.296875 L 0.3125 -4.640625 C 0.3125 -4.691406 0.34375 -4.71875 0.40625 -4.71875 L 1.96875 -4.71875 C 2.03125 -4.71875 2.0625 -4.691406 2.0625 -4.640625 L 2.0625 -4.296875 C 2.0625 -4.242188 2.03125 -4.21875 1.96875 -4.21875 L 1.46875 -4.21875 L 1.46875 -2.578125 L 3.90625 -2.578125 L 3.90625 -4.21875 L 3.40625 -4.21875 C 3.351562 -4.21875 3.328125 -4.242188 3.328125 -4.296875 L 3.328125 -4.640625 C 3.328125 -4.691406 3.351562 -4.71875 3.40625 -4.71875 L 4.984375 -4.71875 C 5.035156 -4.71875 5.0625 -4.691406 5.0625 -4.640625 L 5.0625 -4.296875 C 5.0625 -4.242188 5.035156 -4.21875 4.984375 -4.21875 L 4.484375 -4.21875 L 4.484375 -0.484375 L 4.984375 -0.484375 C 5.035156 -0.484375 5.0625 -0.457031 5.0625 -0.40625 L 5.0625 -0.078125 C 5.0625 -0.0234375 5.035156 0 4.984375 0 Z M 4.984375 0 "/></g></g></g><g fill="#ffffff" fill-opacity="1"><g transform="translate(58.397827, 6.231518)"><g><path d="M 1.96875 0 L 0.40625 0 C 0.34375 0 0.3125 -0.0234375 0.3125 -0.078125 L 0.3125 -0.40625 C 0.3125 -0.457031 0.34375 -0.484375 0.40625 -0.484375 L 0.90625 -0.484375 L 0.90625 -4.21875 L 0.40625 -4.21875 C 0.34375 -4.21875 0.3125 -4.242188 0.3125 -4.296875 L 0.3125 -4.640625 C 0.3125 -4.691406 0.34375 -4.71875 0.40625 -4.71875 L 1.96875 -4.71875 C 2.03125 -4.71875 2.0625 -4.691406 2.0625 -4.640625 L 2.0625 -4.296875 C 2.0625 -4.242188 2.03125 -4.21875 1.96875 -4.21875 L 1.46875 -4.21875 L 1.46875 -0.484375 L 1.96875 -0.484375 C 2.03125 -0.484375 2.0625 -0.457031 2.0625 -0.40625 L 2.0625 -0.078125 C 2.0625 -0.0234375 2.03125 0 1.96875 0 Z M 1.96875 0 "/></g></g></g><g fill="#ffffff" fill-opacity="1"><g transform="translate(60.88231, 6.231518)"><g><path d="M 4.53125 0 L 4.1875 0 C 4.125 0 4.09375 -0.0234375 4.09375 -0.078125 L 4.09375 -0.53125 C 3.71875 -0.144531 3.207031 0.046875 2.5625 0.046875 C 1.914062 0.046875 1.378906 -0.175781 0.953125 -0.625 C 0.523438 -1.070312 0.3125 -1.65625 0.3125 -2.375 C 0.3125 -2.863281 0.421875 -3.289062 0.640625 -3.65625 C 0.859375 -4.03125 1.132812 -4.304688 1.46875 -4.484375 C 1.800781 -4.660156 2.160156 -4.75 2.546875 -4.75 C 3.222656 -4.75 3.707031 -4.539062 4 -4.125 L 3.984375 -4.640625 C 3.984375 -4.691406 4.007812 -4.71875 4.0625 -4.71875 L 4.4375 -4.71875 C 4.488281 -4.71875 4.515625 -4.691406 4.515625 -4.640625 L 4.515625 -3.28125 C 4.515625 -3.226562 4.488281 -3.203125 4.4375 -3.203125 L 4.015625 -3.203125 C 3.960938 -3.203125 3.9375 -3.226562 3.9375 -3.28125 L 3.9375 -3.359375 C 3.9375 -3.554688 3.804688 -3.75 3.546875 -3.9375 C 3.285156 -4.125 2.945312 -4.21875 2.53125 -4.21875 C 2.125 -4.21875 1.753906 -4.046875 1.421875 -3.703125 C 1.085938 -3.367188 0.921875 -2.914062 0.921875 -2.34375 C 0.921875 -1.78125 1.085938 -1.332031 1.421875 -1 C 1.753906 -0.664062 2.125 -0.5 2.53125 -0.5 C 2.945312 -0.5 3.273438 -0.566406 3.515625 -0.703125 C 3.753906 -0.835938 3.929688 -0.992188 4.046875 -1.171875 L 4.046875 -1.6875 L 2.828125 -1.6875 C 2.773438 -1.6875 2.75 -1.710938 2.75 -1.765625 L 2.75 -2.0625 C 2.75 -2.113281 2.773438 -2.140625 2.828125 -2.140625 L 4.53125 -2.140625 C 4.582031 -2.140625 4.609375 -2.113281 4.609375 -2.0625 L 4.609375 -0.078125 C 4.609375 -0.0234375 4.582031 0 4.53125 0 Z M 4.53125 0 "/></g></g></g><g fill="#ffffff" fill-opacity="1"><g transform="translate(66.152831, 6.231518)"><g><path d="M 4.984375 0 L 3.40625 0 C 3.351562 0 3.328125 -0.0234375 3.328125 -0.078125 L 3.328125 -0.40625 C 3.328125 -0.457031 3.351562 -0.484375 3.40625 -0.484375 L 3.90625 -0.484375 L 3.90625 -2.09375 L 1.46875 -2.09375 L 1.46875 -0.484375 L 1.96875 -0.484375 C 2.03125 -0.484375 2.0625 -0.457031 2.0625 -0.40625 L 2.0625 -0.078125 C 2.0625 -0.0234375 2.03125 0 1.96875 0 L 0.40625 0 C 0.34375 0 0.3125 -0.0234375 0.3125 -0.078125 L 0.3125 -0.40625 C 0.3125 -0.457031 0.34375 -0.484375 0.40625 -0.484375 L 0.90625 -0.484375 L 0.90625 -4.21875 L 0.40625 -4.21875 C 0.34375 -4.21875 0.3125 -4.242188 0.3125 -4.296875 L 0.3125 -4.640625 C 0.3125 -4.691406 0.34375 -4.71875 0.40625 -4.71875 L 1.96875 -4.71875 C 2.03125 -4.71875 2.0625 -4.691406 2.0625 -4.640625 L 2.0625 -4.296875 C 2.0625 -4.242188 2.03125 -4.21875 1.96875 -4.21875 L 1.46875 -4.21875 L 1.46875 -2.578125 L 3.90625 -2.578125 L 3.90625 -4.21875 L 3.40625 -4.21875 C 3.351562 -4.21875 3.328125 -4.242188 3.328125 -4.296875 L 3.328125 -4.640625 C 3.328125 -4.691406 3.351562 -4.71875 3.40625 -4.71875 L 4.984375 -4.71875 C 5.035156 -4.71875 5.0625 -4.691406 5.0625 -4.640625 L 5.0625 -4.296875 C 5.0625 -4.242188 5.035156 -4.21875 4.984375 -4.21875 L 4.484375 -4.21875 L 4.484375 -0.484375 L 4.984375 -0.484375 C 5.035156 -0.484375 5.0625 -0.457031 5.0625 -0.40625 L 5.0625 -0.078125 C 5.0625 -0.0234375 5.035156 0 4.984375 0 Z M 4.984375 0 "/></g></g></g><g fill="#ffffff" fill-opacity="1"><g transform="translate(71.823233, 6.231518)"><g><path d="M 3.890625 0 L 0.40625 0 C 0.34375 0 0.3125 -0.0234375 0.3125 -0.078125 L 0.3125 -0.40625 C 0.3125 -0.457031 0.34375 -0.484375 0.40625 -0.484375 L 0.90625 -0.484375 L 0.90625 -4.21875 L 0.40625 -4.21875 C 0.34375 -4.21875 0.3125 -4.242188 0.3125 -4.296875 L 0.3125 -4.640625 C 0.3125 -4.691406 0.34375 -4.71875 0.40625 -4.71875 L 3.890625 -4.71875 C 3.941406 -4.71875 3.96875 -4.691406 3.96875 -4.640625 L 3.96875 -3.578125 C 3.96875 -3.515625 3.941406 -3.484375 3.890625 -3.484375 L 3.53125 -3.484375 C 3.476562 -3.484375 3.453125 -3.515625 3.453125 -3.578125 L 3.453125 -4.21875 L 1.46875 -4.21875 L 1.46875 -2.59375 L 3.125 -2.59375 C 3.1875 -2.59375 3.21875 -2.566406 3.21875 -2.515625 L 3.21875 -2.171875 C 3.21875 -2.117188 3.1875 -2.09375 3.125 -2.09375 L 1.46875 -2.09375 L 1.46875 -0.484375 L 3.4375 -0.484375 L 3.4375 -1.140625 C 3.4375 -1.191406 3.46875 -1.21875 3.53125 -1.21875 L 3.890625 -1.21875 C 3.941406 -1.21875 3.96875 -1.191406 3.96875 -1.140625 L 3.96875 -0.078125 C 3.96875 -0.0234375 3.941406 0 3.890625 0 Z M 3.890625 0 "/></g></g></g><g fill="#ffffff" fill-opacity="1"><g transform="translate(76.431663, 6.231518)"><g><path d="M 4.296875 0 L 3.734375 0 C 3.566406 0 3.429688 -0.101562 3.328125 -0.3125 L 2.71875 -1.5625 C 2.664062 -1.675781 2.609375 -1.757812 2.546875 -1.8125 C 2.484375 -1.863281 2.398438 -1.890625 2.296875 -1.890625 L 1.46875 -1.890625 L 1.46875 -0.484375 L 2.0625 -0.484375 C 2.113281 -0.484375 2.140625 -0.457031 2.140625 -0.40625 L 2.140625 -0.078125 C 2.140625 -0.0234375 2.113281 0 2.0625 0 L 0.40625 0 C 0.34375 0 0.3125 -0.0234375 0.3125 -0.078125 L 0.3125 -0.40625 C 0.3125 -0.457031 0.34375 -0.484375 0.40625 -0.484375 L 0.90625 -0.484375 L 0.90625 -4.21875 L 0.40625 -4.21875 C 0.34375 -4.21875 0.3125 -4.242188 0.3125 -4.296875 L 0.3125 -4.640625 C 0.3125 -4.691406 0.34375 -4.71875 0.40625 -4.71875 L 2.421875 -4.71875 C 2.890625 -4.71875 3.269531 -4.59375 3.5625 -4.34375 C 3.851562 -4.09375 4 -3.742188 4 -3.296875 C 4 -2.609375 3.675781 -2.179688 3.03125 -2.015625 C 3.113281 -1.941406 3.21875 -1.789062 3.34375 -1.5625 L 3.890625 -0.484375 L 4.296875 -0.484375 C 4.347656 -0.484375 4.375 -0.457031 4.375 -0.40625 L 4.375 -0.078125 C 4.375 -0.0234375 4.347656 0 4.296875 0 Z M 1.46875 -2.359375 L 2.3125 -2.359375 C 3.050781 -2.359375 3.421875 -2.664062 3.421875 -3.28125 C 3.421875 -3.90625 3.050781 -4.21875 2.3125 -4.21875 L 1.46875 -4.21875 Z M 1.46875 -2.359375 "/></g></g></g></g></g></svg>