<svg xmlns="http://www.w3.org/2000/svg" xmlns:xlink="http://www.w3.org/1999/xlink" width="120" zoomAndPan="magnify" viewBox="0 0 90 89.999999" height="120" preserveAspectRatio="xMidYMid meet" version="1.0"><defs><g/><clipPath id="d278b1f18e"><path d="M 4.164062 0 L 89.664062 0 L 89.664062 90 L 4.164062 90 Z M 4.164062 0 " clip-rule="nonzero"/></clipPath><clipPath id="e8180e1b1f"><path d="M 0.492188 0 L 85.664062 0 L 85.664062 74 L 0.492188 74 Z M 0.492188 0 " clip-rule="nonzero"/></clipPath><clipPath id="dee5a8f558"><rect x="0" width="86" y="0" height="90"/></clipPath></defs><g fill="#000000" fill-opacity="1"><g transform="translate(43.883787, 46.122069)"><g><path d="M 1.65625 0 L 1.59375 -0.3125 L 1.578125 -0.3125 C 1.472656 -0.175781 1.367188 -0.0820312 1.265625 -0.03125 C 1.160156 0.0195312 1.023438 0.046875 0.859375 0.046875 C 0.648438 0.046875 0.484375 -0.0078125 0.359375 -0.125 C 0.242188 -0.238281 0.1875 -0.394531 0.1875 -0.59375 C 0.1875 -1.019531 0.53125 -1.242188 1.21875 -1.265625 L 1.578125 -1.28125 L 1.578125 -1.421875 C 1.578125 -1.585938 1.539062 -1.707031 1.46875 -1.78125 C 1.40625 -1.863281 1.289062 -1.90625 1.125 -1.90625 C 0.945312 -1.90625 0.75 -1.851562 0.53125 -1.75 L 0.421875 -2 C 0.523438 -2.050781 0.640625 -2.09375 0.765625 -2.125 C 0.890625 -2.15625 1.019531 -2.171875 1.15625 -2.171875 C 1.40625 -2.171875 1.59375 -2.113281 1.71875 -2 C 1.84375 -1.894531 1.90625 -1.71875 1.90625 -1.46875 L 1.90625 0 Z M 0.921875 -0.234375 C 1.128906 -0.234375 1.289062 -0.285156 1.40625 -0.390625 C 1.519531 -0.503906 1.578125 -0.660156 1.578125 -0.859375 L 1.578125 -1.046875 L 1.25 -1.046875 C 0.988281 -1.035156 0.800781 -0.992188 0.6875 -0.921875 C 0.582031 -0.847656 0.53125 -0.738281 0.53125 -0.59375 C 0.53125 -0.46875 0.5625 -0.375 0.625 -0.3125 C 0.695312 -0.257812 0.796875 -0.234375 0.921875 -0.234375 Z M 0.921875 -0.234375 "/></g></g></g><g clip-path="url(#d278b1f18e)"><g transform="matrix(1, 0, 0, 1, 4, -0.00000000000000949)"><g clip-path="url(#dee5a8f558)"><g clip-path="url(#e8180e1b1f)"><path fill="#1d1d1d" d="M 12.480469 65.453125 L 54.828125 65.453125 C 55.070312 65.460938 55.3125 65.445312 55.550781 65.40625 C 55.789062 65.367188 56.023438 65.300781 56.25 65.214844 C 56.476562 65.128906 56.691406 65.019531 56.894531 64.890625 C 57.097656 64.757812 57.289062 64.609375 57.460938 64.441406 C 57.636719 64.273438 57.792969 64.089844 57.929688 63.890625 C 58.066406 63.6875 58.183594 63.476562 58.277344 63.253906 C 58.371094 63.03125 58.441406 62.800781 58.492188 62.5625 C 58.539062 62.328125 58.5625 62.085938 58.5625 61.84375 C 58.5625 61.601562 58.539062 61.363281 58.492188 61.125 C 58.441406 60.886719 58.371094 60.65625 58.277344 60.433594 C 58.183594 60.210938 58.066406 60 57.929688 59.800781 C 57.792969 59.601562 57.636719 59.414062 57.460938 59.246094 C 57.289062 59.078125 57.097656 58.929688 56.894531 58.800781 C 56.691406 58.667969 56.476562 58.558594 56.25 58.472656 C 56.023438 58.386719 55.789062 58.324219 55.550781 58.28125 C 55.3125 58.242188 55.070312 58.226562 54.828125 58.234375 L 12.480469 58.234375 C 12.015625 58.234375 11.5625 58.15625 11.125 58.003906 C 10.683594 57.847656 10.28125 57.625 9.917969 57.335938 C 9.554688 57.042969 9.25 56.699219 9.003906 56.304688 C 8.757812 55.910156 8.585938 55.484375 8.484375 55.03125 L 0.78125 20.375 C 0.714844 20.078125 0.683594 19.773438 0.683594 19.46875 C 0.6875 19.164062 0.722656 18.859375 0.792969 18.5625 C 0.859375 18.265625 0.964844 17.976562 1.097656 17.703125 C 1.230469 17.425781 1.394531 17.167969 1.585938 16.929688 C 1.777344 16.691406 1.992188 16.476562 2.234375 16.289062 C 2.472656 16.097656 2.730469 15.9375 3.007812 15.804688 C 3.285156 15.671875 3.570312 15.570312 3.871094 15.503906 C 4.167969 15.4375 4.472656 15.402344 4.777344 15.402344 L 62.53125 15.402344 C 62.828125 15.402344 63.117188 15.429688 63.402344 15.492188 L 66.242188 3.171875 C 66.347656 2.71875 66.523438 2.296875 66.769531 1.90625 C 67.015625 1.515625 67.320312 1.175781 67.683594 0.886719 C 68.046875 0.601562 68.445312 0.378906 68.882812 0.226562 C 69.320312 0.0742188 69.769531 0 70.230469 0 L 81.785156 0 C 82.054688 0 82.320312 0.0273438 82.582031 0.078125 C 82.847656 0.132812 83.101562 0.207031 83.351562 0.3125 C 83.597656 0.414062 83.835938 0.539062 84.058594 0.6875 C 84.28125 0.839844 84.488281 1.007812 84.675781 1.199219 C 84.867188 1.386719 85.035156 1.59375 85.1875 1.816406 C 85.335938 2.042969 85.460938 2.277344 85.5625 2.523438 C 85.667969 2.773438 85.746094 3.03125 85.796875 3.292969 C 85.847656 3.554688 85.875 3.824219 85.875 4.089844 C 85.875 4.359375 85.847656 4.625 85.796875 4.890625 C 85.746094 5.152344 85.667969 5.410156 85.5625 5.65625 C 85.460938 5.90625 85.335938 6.140625 85.1875 6.363281 C 85.035156 6.585938 84.867188 6.792969 84.675781 6.984375 C 84.488281 7.171875 84.28125 7.34375 84.058594 7.492188 C 83.835938 7.640625 83.597656 7.769531 83.351562 7.871094 C 83.101562 7.972656 82.847656 8.050781 82.582031 8.101562 C 82.320312 8.15625 82.054688 8.183594 81.785156 8.183594 L 73.488281 8.183594 L 63.046875 53.414062 C 63.890625 54.230469 64.59375 55.152344 65.160156 56.179688 C 65.726562 57.207031 66.128906 58.292969 66.371094 59.441406 C 66.609375 60.589844 66.679688 61.746094 66.574219 62.914062 C 66.46875 64.082031 66.195312 65.210938 65.753906 66.296875 C 65.3125 67.382812 64.722656 68.378906 63.984375 69.289062 C 63.242188 70.199219 62.386719 70.980469 61.414062 71.636719 C 60.441406 72.289062 59.394531 72.785156 58.269531 73.128906 C 57.148438 73.46875 56.003906 73.636719 54.828125 73.636719 L 12.480469 73.636719 C 12.210938 73.636719 11.945312 73.609375 11.683594 73.558594 C 11.417969 73.503906 11.164062 73.429688 10.914062 73.324219 C 10.667969 73.222656 10.429688 73.097656 10.207031 72.945312 C 9.984375 72.796875 9.777344 72.628906 9.589844 72.4375 C 9.398438 72.25 9.226562 72.042969 9.078125 71.816406 C 8.929688 71.59375 8.804688 71.359375 8.699219 71.109375 C 8.597656 70.863281 8.519531 70.605469 8.46875 70.34375 C 8.414062 70.082031 8.390625 69.8125 8.390625 69.546875 C 8.390625 69.277344 8.414062 69.011719 8.46875 68.746094 C 8.519531 68.484375 8.597656 68.226562 8.699219 67.980469 C 8.804688 67.730469 8.929688 67.496094 9.078125 67.273438 C 9.226562 67.050781 9.398438 66.84375 9.589844 66.652344 C 9.777344 66.460938 9.984375 66.292969 10.207031 66.144531 C 10.429688 65.996094 10.667969 65.867188 10.914062 65.765625 C 11.164062 65.664062 11.417969 65.585938 11.683594 65.53125 C 11.945312 65.480469 12.210938 65.453125 12.480469 65.453125 Z M 12.480469 65.453125 " fill-opacity="1" fill-rule="nonzero"/></g><path fill="#1d1d1d" d="M 43.28125 83.863281 C 43.28125 84.265625 43.320312 84.664062 43.398438 85.0625 C 43.476562 85.457031 43.59375 85.839844 43.75 86.210938 C 43.902344 86.585938 44.089844 86.9375 44.316406 87.273438 C 44.539062 87.609375 44.792969 87.917969 45.078125 88.203125 C 45.363281 88.488281 45.671875 88.742188 46.007812 88.964844 C 46.34375 89.191406 46.695312 89.378906 47.070312 89.53125 C 47.441406 89.6875 47.824219 89.804688 48.21875 89.882812 C 48.617188 89.960938 49.015625 90 49.417969 90 C 49.820312 90 50.21875 89.960938 50.613281 89.882812 C 51.011719 89.804688 51.394531 89.6875 51.765625 89.53125 C 52.136719 89.378906 52.492188 89.191406 52.828125 88.964844 C 53.160156 88.742188 53.472656 88.488281 53.757812 88.203125 C 54.042969 87.917969 54.296875 87.609375 54.519531 87.273438 C 54.742188 86.9375 54.933594 86.585938 55.085938 86.210938 C 55.242188 85.839844 55.355469 85.457031 55.4375 85.0625 C 55.515625 84.664062 55.554688 84.265625 55.554688 83.863281 C 55.554688 83.460938 55.515625 83.0625 55.4375 82.667969 C 55.355469 82.269531 55.242188 81.886719 55.085938 81.515625 C 54.933594 81.144531 54.742188 80.789062 54.519531 80.453125 C 54.296875 80.121094 54.042969 79.808594 53.757812 79.523438 C 53.472656 79.238281 53.160156 78.984375 52.828125 78.761719 C 52.492188 78.539062 52.136719 78.347656 51.765625 78.195312 C 51.394531 78.039062 51.011719 77.921875 50.613281 77.84375 C 50.21875 77.765625 49.820312 77.726562 49.417969 77.726562 C 49.015625 77.726562 48.617188 77.765625 48.21875 77.84375 C 47.824219 77.921875 47.441406 78.039062 47.070312 78.195312 C 46.695312 78.347656 46.34375 78.539062 46.007812 78.761719 C 45.671875 78.984375 45.363281 79.238281 45.078125 79.523438 C 44.792969 79.808594 44.539062 80.121094 44.316406 80.453125 C 44.089844 80.789062 43.902344 81.144531 43.75 81.515625 C 43.59375 81.886719 43.476562 82.269531 43.398438 82.667969 C 43.320312 83.0625 43.28125 83.460938 43.28125 83.863281 Z M 43.28125 83.863281 " fill-opacity="1" fill-rule="nonzero"/><path fill="#1d1d1d" d="M 14.644531 83.863281 C 14.644531 84.265625 14.683594 84.664062 14.761719 85.0625 C 14.839844 85.457031 14.957031 85.839844 15.113281 86.210938 C 15.265625 86.585938 15.453125 86.9375 15.679688 87.273438 C 15.902344 87.609375 16.15625 87.917969 16.441406 88.203125 C 16.726562 88.488281 17.035156 88.742188 17.371094 88.964844 C 17.707031 89.191406 18.0625 89.378906 18.433594 89.53125 C 18.804688 89.6875 19.1875 89.804688 19.582031 89.882812 C 19.980469 89.960938 20.378906 90 20.78125 90 C 21.183594 90 21.582031 89.960938 21.976562 89.882812 C 22.375 89.804688 22.757812 89.6875 23.128906 89.53125 C 23.5 89.378906 23.855469 89.191406 24.191406 88.964844 C 24.523438 88.742188 24.835938 88.488281 25.121094 88.203125 C 25.40625 87.917969 25.660156 87.609375 25.882812 87.273438 C 26.105469 86.9375 26.296875 86.585938 26.449219 86.210938 C 26.605469 85.839844 26.722656 85.457031 26.800781 85.0625 C 26.878906 84.664062 26.917969 84.265625 26.917969 83.863281 C 26.917969 83.460938 26.878906 83.0625 26.800781 82.667969 C 26.722656 82.269531 26.605469 81.886719 26.449219 81.515625 C 26.296875 81.144531 26.105469 80.789062 25.882812 80.453125 C 25.660156 80.121094 25.40625 79.808594 25.121094 79.523438 C 24.835938 79.238281 24.523438 78.984375 24.191406 78.761719 C 23.855469 78.539062 23.5 78.347656 23.128906 78.195312 C 22.757812 78.039062 22.375 77.921875 21.976562 77.84375 C 21.582031 77.765625 21.183594 77.726562 20.78125 77.726562 C 20.378906 77.726562 19.980469 77.765625 19.582031 77.84375 C 19.1875 77.921875 18.804688 78.039062 18.433594 78.195312 C 18.0625 78.347656 17.707031 78.539062 17.371094 78.761719 C 17.035156 78.984375 16.726562 79.238281 16.441406 79.523438 C 16.15625 79.808594 15.902344 80.121094 15.679688 80.453125 C 15.453125 80.789062 15.265625 81.144531 15.113281 81.515625 C 14.957031 81.886719 14.839844 82.269531 14.761719 82.667969 C 14.683594 83.0625 14.644531 83.460938 14.644531 83.863281 Z M 14.644531 83.863281 " fill-opacity="1" fill-rule="nonzero"/></g></g></g></svg>